<svg width="36" height="34" viewBox="0 0 36 34" fill="none" xmlns="http://www.w3.org/2000/svg">
<path opacity="0.2" d="M15.5001 31.9818V25.975C15.5001 25.16 14.8395 24.4999 14.0249 24.4999C11.1185 24.4999 9.53728 21.519 9.31783 15.6348H14.0249C14.8394 15.6348 15.5001 14.9737 15.5001 14.1596V1.47609C15.5001 0.661367 14.8395 0.00123756 14.0249 0.00123756H1.47517C0.660863 0.00123756 -9.15527e-05 0.662089 -9.15527e-05 1.47609V14.1597C-9.15527e-05 16.9802 0.284649 19.5684 0.843609 21.8543C1.41783 24.1976 2.29927 26.2462 3.46288 27.944C4.65959 29.6886 6.15785 31.0576 7.91342 32.0111C9.68229 32.9706 11.7385 33.4575 14.0256 33.4575C14.8394 33.4569 15.5001 32.7962 15.5001 31.9818ZM34.5252 24.4993C35.3396 24.4993 36 25.16 36 25.9739V31.9819C36 32.7962 35.3396 33.4564 34.5252 33.4564C32.2392 33.4564 30.182 32.9693 28.4142 32.0099C26.6577 31.0566 25.1597 29.6887 23.9631 27.9428C22.7988 26.2451 21.9174 24.1963 21.3432 21.8519C20.7839 19.5661 20.4998 16.9777 20.4998 14.1585V1.47485C20.4998 0.660129 21.1609 0 21.975 0H34.5252C35.3396 0 36 0.660748 36 1.47485V14.1585C36 14.9731 35.3396 15.6336 34.5252 15.6336H29.8841C30.1009 21.5184 31.6593 24.4993 34.5252 24.4993Z" fill="white"/>
</svg>
